<?xml version="1.0" standalone="no"?>
<!DOCTYPE svg PUBLIC "-//W3C//DTD SVG 20010904//EN"
 "http://www.w3.org/TR/2001/REC-SVG-20010904/DTD/svg10.dtd">
<svg version="1.0" xmlns="http://www.w3.org/2000/svg"
 width="700.000000pt" height="700.000000pt" viewBox="0 0 700.000000 700.000000"
 preserveAspectRatio="xMidYMid meet">
<metadata>
Created by potrace 1.14, written by Peter Selinger 2001-2017
</metadata>
<g transform="translate(0.000000,700.000000) scale(0.100000,-0.100000)"
fill="#000000" stroke="none">
<path d="M3405 5815 c-22 -8 -697 -277 -1499 -598 -1039 -416 -1472 -594
-1505 -618 -142 -105 -142 -343 0 -448 31 -23 213 -101 550 -235 l504 -202 5
-760 5 -759 24 -70 c75 -225 215 -399 450 -556 279 -188 654 -314 1116 -376
185 -24 706 -24 889 0 477 64 851 192 1136 388 218 149 358 326 431 544 l24
70 5 758 5 759 285 114 c156 63 288 114 292 114 5 0 8 -312 8 -692 l0 -693 24
-50 c104 -220 416 -224 523 -7 l28 57 0 945 0 945 -28 57 c-17 35 -46 72 -72
93 -35 29 -337 154 -1532 632 -1390 556 -1493 596 -1558 599 -46 3 -84 -1
-110 -11z m1167 -1016 c582 -232 1057 -424 1055 -425 -1 -1 -480 -193 -1064
-427 l-1063 -425 -1066 426 c-769 308 -1060 429 -1047 434 139 61 2111 845
2118 843 6 -1 486 -193 1067 -426z m-1792 -1615 l645 -259 80 1 80 0 685 275
685 275 3 -584 c2 -560 1 -586 -17 -628 -41 -92 -125 -171 -276 -257 -426
-245 -1195 -327 -1805 -191 -395 88 -715 263 -795 436 l-25 53 0 587 0 588 48
-19 c26 -10 337 -135 692 -277z"/>
</g>
</svg>
